<?xml version="1.0" standalone="no"?>
<!DOCTYPE svg PUBLIC "-//W3C//DTD SVG 20010904//EN"
 "http://www.w3.org/TR/2001/REC-SVG-20010904/DTD/svg10.dtd">
<svg version="1.0" xmlns="http://www.w3.org/2000/svg"
 width="1024.000000pt" height="1024.000000pt" viewBox="0 0 1024.000000 1024.000000"
 preserveAspectRatio="xMidYMid meet">
<metadata>
Created by potrace 1.11, written by Peter Selinger 2001-2013
</metadata>
<g transform="translate(0.000000,1024.000000) scale(0.100000,-0.100000)"
fill="#000000" stroke="none">
<path d="M0 5120 l0 -5120 5120 0 5120 0 0 5120 0 5120 -5120 0 -5120 0 0
-5120z m5610 2041 c145 -10 187 -24 248 -84 82 -80 190 -282 305 -572 93 -235
122 -375 96 -468 -13 -48 -73 -115 -118 -134 -64 -27 -344 -35 -1281 -36
l-935 -1 -53 24 c-110 48 -172 160 -153 278 27 167 205 575 339 777 26 38 80
105 121 148 l74 77 616 0 c339 -1 672 -5 741 -9z m1470 -1382 c87 -14 140 -42
222 -118 80 -74 114 -130 210 -354 126 -294 208 -522 208 -581 0 -44 -51 -145
-96 -193 l-39 -41 -275 -6 c-151 -4 -673 -6 -1159 -4 l-884 3 -51 73 c-46 67
-51 78 -54 140 -5 85 11 149 84 340 75 196 168 390 234 487 30 44 92 119 138
167 l85 88 261 3 c705 7 1055 6 1116 -4z m-2479 -166 c103 -107 125 -135 183
-241 96 -172 225 -519 247 -662 18 -119 3 -167 -80 -252 l-67 -68 -1125 0
-1125 0 -51 53 c-90 90 -110 165 -77 290 24 95 107 310 182 474 133 291 233
423 347 457 99 29 203 33 856 35 l625 1 85 -87z m4062 -1274 c129 -119 185
-209 267 -423 89 -234 117 -394 107 -604 -6 -134 -22 -172 -77 -184 -77 -17
-628 -28 -1420 -28 l-836 0 -50 58 c-58 66 -79 102 -89 155 -15 76 34 248 142
502 131 311 192 408 324 523 l94 82 725 0 726 0 87 -81z m-5373 -101 c51 -56
108 -127 128 -158 51 -79 122 -234 180 -390 80 -215 104 -304 105 -400 2 -103
-14 -140 -96 -218 l-56 -52 -968 0 c-1069 0 -1230 6 -1295 42 -62 35 -80 65
-86 147 -15 208 112 594 283 861 26 41 91 119 143 173 l96 97 737 0 738 0 91
-102z m2714 12 c47 -50 105 -118 127 -152 85 -124 224 -457 276 -658 28 -108
28 -223 1 -275 -9 -16 -42 -56 -74 -87 l-59 -58 -785 -1 c-1321 -2 -1394 0
-1478 44 -26 13 -60 41 -77 62 -27 33 -30 45 -34 121 -2 68 2 101 23 176 56
193 198 507 301 663 29 44 90 119 135 168 l82 87 738 0 738 0 86 -90z"/>
</g>
</svg>
